<svg xmlns="http://www.w3.org/2000/svg" viewBox="0 0 900 900" width="900" height="900" role="img" aria-label="演示图片 05">
<rect width="900" height="900" fill="#f4f3f0"/>
<rect x="70" y="70" width="18" height="760" fill="#111111" fill-opacity="0.5"/><rect x="110" y="70" width="52" height="760" fill="#111111" fill-opacity="0.85"/><rect x="184" y="70" width="18" height="760" fill="#111111" fill-opacity="0.5"/><rect x="224" y="70" width="96" height="760" fill="#111111" fill-opacity="0.85"/><rect x="342" y="70" width="18" height="760" fill="#111111" fill-opacity="0.5"/><rect x="382" y="70" width="34" height="760" fill="#111111" fill-opacity="0.5"/><rect x="438" y="70" width="140" height="760" fill="#111111" fill-opacity="0.85"/><rect x="600" y="70" width="18" height="760" fill="#111111" fill-opacity="0.5"/><rect x="70" y="640" width="548" height="46" fill="#e30613"/>
<g stroke="#111" stroke-opacity=".12" stroke-width="1"><line x1="0" y1="150" x2="900" y2="150"/><line x1="0" y1="300" x2="900" y2="300"/><line x1="0" y1="450" x2="900" y2="450"/><line x1="0" y1="600" x2="900" y2="600"/><line x1="0" y1="750" x2="900" y2="750"/></g>
</svg>
